<?xml version="1.0" standalone="no"?>
<!DOCTYPE svg PUBLIC "-//W3C//DTD SVG 20010904//EN"
 "http://www.w3.org/TR/2001/REC-SVG-20010904/DTD/svg10.dtd">
<svg version="1.0" xmlns="http://www.w3.org/2000/svg"
 width="500.000000pt" height="500.000000pt" viewBox="0 0 500.000000 500.000000"
 preserveAspectRatio="xMidYMid meet">
<metadata>
Created by potrace 1.11, written by Peter Selinger 2001-2013
</metadata>
<g transform="translate(0.000000,500.000000) scale(0.100000,-0.100000)"
fill="#000000" stroke="none">
<path d="M2220 4989 c-548 -63 -1059 -305 -1459 -694 -388 -377 -632 -838
-728 -1375 -31 -176 -43 -503 -24 -671 55 -485 226 -910 519 -1289 90 -116
286 -316 403 -410 305 -246 678 -423 1053 -500 334 -68 697 -68 1032 0 959
195 1736 973 1934 1935 38 182 50 303 50 515 0 344 -50 610 -170 915 -342 867
-1135 1472 -2062 1574 -112 13 -438 12 -548 0z m-855 -1430 c64 -24 149 -74
241 -144 39 -29 92 -64 118 -77 l48 -24 -54 -41 c-52 -41 -54 -41 -100 -32
-25 6 -97 40 -160 76 -215 123 -253 138 -277 109 -9 -11 -9 -22 1 -47 l14 -32
-88 -44 c-98 -49 -116 -74 -78 -105 13 -10 21 -20 19 -21 -2 -2 -38 -9 -79
-15 -72 -12 -110 -32 -110 -57 0 -7 13 -29 30 -50 l29 -37 -29 -25 c-44 -37
-39 -63 22 -117 l51 -45 -18 -42 c-36 -80 -22 -162 37 -220 43 -41 182 -141
232 -166 57 -29 51 -38 -32 -49 -29 -3 -55 -11 -59 -17 -10 -16 25 -35 80 -42
74 -10 77 -16 21 -37 -27 -11 -57 -27 -66 -35 -16 -14 -24 -14 -85 1 -36 9
-69 18 -71 21 -3 3 3 14 13 25 28 31 12 65 -74 154 -72 75 -80 88 -91 142 -7
34 -10 90 -7 132 7 95 -1 118 -65 194 -60 71 -90 129 -70 136 27 9 72 55 72
73 0 11 -6 34 -14 53 l-14 33 57 0 c95 0 131 36 91 93 l-21 30 23 0 c28 0 137
50 161 74 23 23 22 68 -3 99 l-20 25 68 12 c85 16 102 25 102 54 0 23 2 23 52
14 28 -5 74 -18 103 -29z m2462 -10 c8 -10 35 -20 61 -24 26 -3 57 -9 69 -12
l21 -5 -20 -34 c-13 -23 -18 -43 -14 -60 8 -31 80 -78 147 -95 52 -14 58 -19
34 -39 -8 -7 -15 -23 -15 -36 0 -36 43 -59 110 -58 l57 1 -13 -26 c-8 -14 -14
-41 -14 -58 0 -27 7 -37 40 -58 51 -32 46 -47 -62 -178 l-48 -58 0 -124 c0
-68 -5 -136 -11 -152 -5 -15 -36 -55 -68 -88 -103 -107 -121 -144 -85 -179 14
-15 13 -17 -9 -25 -87 -33 -105 -34 -169 -2 -34 17 -68 31 -77 31 -29 1 10 17
59 25 70 10 80 15 80 36 0 15 -7 19 -32 20 -18 0 -50 6 -71 12 l-37 12 52 27
c73 39 223 152 255 194 37 49 43 124 15 187 l-21 46 49 43 c64 57 70 80 31
119 l-31 30 25 33 c51 67 23 97 -103 112 -62 7 -78 17 -43 29 57 18 13 75 -94
120 -51 22 -64 32 -59 44 17 39 16 71 -1 77 -27 11 -77 -11 -235 -102 -93 -54
-163 -87 -194 -93 -48 -9 -50 -8 -102 34 l-53 44 34 11 c19 6 83 47 142 90
125 92 207 134 307 160 65 17 71 17 75 1 1 -9 10 -23 18 -32z m-1084 -110
c238 -35 454 -133 620 -279 28 -25 53 -40 62 -36 21 8 19 26 -7 53 l-21 23 27
0 c15 0 96 36 181 80 85 44 156 80 159 80 3 0 6 -12 8 -27 2 -23 14 -34 68
-60 36 -18 70 -34 75 -37 6 -2 0 -11 -12 -21 -15 -10 -23 -27 -23 -46 0 -24 6
-32 33 -43 17 -8 55 -17 82 -20 87 -12 89 -13 65 -43 -30 -38 -26 -80 8 -100
l28 -16 -48 -47 c-53 -52 -57 -68 -28 -125 31 -61 27 -117 -12 -161 -54 -61
-262 -216 -272 -202 -1 2 -8 39 -15 83 -17 119 -62 198 -93 167 -8 -8 -5 -23
11 -54 12 -24 30 -86 41 -138 15 -76 23 -99 44 -117 31 -26 32 -33 7 -33 -10
0 -29 -8 -42 -19 -30 -24 -18 -40 53 -66 l53 -20 -65 -5 c-57 -4 -65 -8 -65
-25 0 -14 15 -27 52 -45 l53 -25 -46 -19 c-56 -23 -63 -34 -112 -171 -120
-337 -277 -528 -534 -650 -348 -165 -892 -146 -1212 41 -96 56 -217 171 -286
270 -60 87 -136 243 -175 362 -32 97 -62 137 -115 153 l-39 12 60 28 c45 21
60 33 57 46 -3 15 -16 19 -68 21 l-65 4 53 23 c29 13 55 32 59 41 8 21 -21 44
-55 44 l-24 0 30 28 c22 21 33 43 41 87 22 113 33 150 53 183 16 25 18 36 9
45 -17 17 -42 -2 -64 -45 -13 -26 -47 -174 -47 -206 0 -5 -66 32 -100 57 -116
85 -189 154 -201 188 -12 39 -1 95 28 139 20 31 10 57 -45 109 l-45 44 27 12
c37 17 43 51 17 93 -25 40 -29 38 79 56 94 17 126 54 80 95 -11 10 -20 21 -20
25 0 4 31 21 69 38 69 31 88 52 75 85 -3 9 51 -14 138 -60 78 -41 164 -80 191
-87 47 -12 48 -12 27 -31 -22 -20 -27 -55 -7 -55 7 0 37 21 67 46 180 154 373
237 640 278 58 8 367 5 433 -5z"/>
<path d="M1935 2770 c-26 -27 -30 -38 -30 -90 0 -49 5 -66 30 -101 42 -60 76
-81 135 -87 43 -4 55 -1 75 18 56 53 54 126 -5 209 -62 86 -151 107 -205 51z
m149 -41 c40 -48 33 -99 -14 -99 -32 0 -80 49 -80 80 0 59 52 70 94 19z"/>
<path d="M2923 2758 c-75 -70 -101 -153 -68 -218 8 -16 24 -34 34 -40 28 -14
87 -12 119 4 37 19 89 75 101 109 25 64 5 153 -38 177 -11 5 -38 10 -61 10
-34 0 -48 -7 -87 -42z m106 -20 c19 -51 -27 -112 -78 -106 -22 3 -26 9 -29 39
-6 66 86 124 107 67z"/>
<path d="M2429 2357 c-49 -33 -75 -78 -89 -153 -29 -154 23 -309 121 -360 25
-12 29 -21 29 -55 0 -33 -4 -41 -26 -49 -36 -14 -76 -12 -129 6 -57 19 -85 11
-85 -22 0 -19 8 -29 38 -41 51 -21 149 -22 191 -1 28 15 37 16 60 4 44 -22 92
-27 152 -15 67 13 100 40 82 67 -12 20 -40 20 -105 2 -33 -10 -58 -11 -85 -4
-36 8 -38 12 -41 50 -3 37 0 43 33 65 43 29 91 98 106 153 6 23 9 86 7 141 -4
115 -28 172 -87 212 -47 32 -125 32 -172 0z"/>
</g>
</svg>
